<mxfile host="app.diagrams.net" modified="2021-09-06T03:40:33.659Z" agent="5.0 (Windows NT 10.0; Win64; x64) AppleWebKit/537.36 (KHTML, like Gecko) Chrome/92.0.4515.131 Safari/537.36 OPR/78.0.4093.186" etag="blta24hEmlaKYEjAVPAK" version="15.0.6" type="github">
  <diagram id="ebvD72cVN4203ljJhCVC" name="Page-1">
    <mxGraphModel dx="1381" dy="764" grid="1" gridSize="10" guides="1" tooltips="1" connect="1" arrows="1" fold="1" page="1" pageScale="1" pageWidth="827" pageHeight="1169" math="0" shadow="0">
      <root>
        <mxCell id="0" />
        <mxCell id="1" parent="0" />
        <mxCell id="hBS44LDTYtl2Zqlr24Ed-20" style="edgeStyle=orthogonalEdgeStyle;rounded=0;orthogonalLoop=1;jettySize=auto;html=1;endArrow=diamond;endFill=1;entryX=0.75;entryY=1;entryDx=0;entryDy=0;" edge="1" parent="1" source="vyAEzv-LTm84XFhcAqhD-1" target="hBS44LDTYtl2Zqlr24Ed-15">
          <mxGeometry relative="1" as="geometry" />
        </mxCell>
        <mxCell id="vyAEzv-LTm84XFhcAqhD-1" value="Figuras" style="swimlane;fontStyle=2;align=center;verticalAlign=top;childLayout=stackLayout;horizontal=1;startSize=26;horizontalStack=0;resizeParent=1;resizeParentMax=0;resizeLast=0;collapsible=1;marginBottom=0;" parent="1" vertex="1">
          <mxGeometry x="480" y="690" width="300" height="118" as="geometry">
            <mxRectangle x="270" y="290" width="80" height="26" as="alternateBounds" />
          </mxGeometry>
        </mxCell>
        <mxCell id="vyAEzv-LTm84XFhcAqhD-2" value="- tamaño: int&#xa;-ubicacion: int&#xa;-velocidad: int&#xa;-tiempo: int&#xa;-color: int " style="text;strokeColor=none;fillColor=none;align=left;verticalAlign=top;spacingLeft=4;spacingRight=4;overflow=hidden;rotatable=0;points=[[0,0.5],[1,0.5]];portConstraint=eastwest;" parent="vyAEzv-LTm84XFhcAqhD-1" vertex="1">
          <mxGeometry y="26" width="300" height="84" as="geometry" />
        </mxCell>
        <mxCell id="vyAEzv-LTm84XFhcAqhD-3" value="" style="line;strokeWidth=1;fillColor=none;align=left;verticalAlign=middle;spacingTop=-1;spacingLeft=3;spacingRight=3;rotatable=0;labelPosition=right;points=[];portConstraint=eastwest;" parent="vyAEzv-LTm84XFhcAqhD-1" vertex="1">
          <mxGeometry y="110" width="300" height="8" as="geometry" />
        </mxCell>
        <mxCell id="hBS44LDTYtl2Zqlr24Ed-1" style="edgeStyle=orthogonalEdgeStyle;rounded=0;orthogonalLoop=1;jettySize=auto;html=1;endArrow=block;endFill=0;" edge="1" parent="1" source="vyAEzv-LTm84XFhcAqhD-5" target="vyAEzv-LTm84XFhcAqhD-2">
          <mxGeometry relative="1" as="geometry" />
        </mxCell>
        <mxCell id="hBS44LDTYtl2Zqlr24Ed-23" style="edgeStyle=orthogonalEdgeStyle;rounded=0;orthogonalLoop=1;jettySize=auto;html=1;entryX=0.5;entryY=0;entryDx=0;entryDy=0;endArrow=diamond;endFill=1;" edge="1" parent="1" source="vyAEzv-LTm84XFhcAqhD-5" target="hBS44LDTYtl2Zqlr24Ed-15">
          <mxGeometry relative="1" as="geometry" />
        </mxCell>
        <mxCell id="vyAEzv-LTm84XFhcAqhD-5" value="Circulo" style="swimlane;fontStyle=1;align=center;verticalAlign=top;childLayout=stackLayout;horizontal=1;startSize=26;horizontalStack=0;resizeParent=1;resizeParentMax=0;resizeLast=0;collapsible=1;marginBottom=0;" parent="1" vertex="1">
          <mxGeometry x="827" y="386" width="300" height="300" as="geometry">
            <mxRectangle x="630" y="410" width="80" height="26" as="alternateBounds" />
          </mxGeometry>
        </mxCell>
        <mxCell id="vyAEzv-LTm84XFhcAqhD-6" value="-x:int&#xa;-y:int&#xa;-r:int&#xa;-g:int&#xa;-b:int&#xa;-radius: int&#xa;-opacity:int&#xa;-counter:int&#xa;-vanishing:int&#xa;" style="text;strokeColor=none;fillColor=none;align=left;verticalAlign=top;spacingLeft=4;spacingRight=4;overflow=hidden;rotatable=0;points=[[0,0.5],[1,0.5]];portConstraint=eastwest;" parent="vyAEzv-LTm84XFhcAqhD-5" vertex="1">
          <mxGeometry y="26" width="300" height="144" as="geometry" />
        </mxCell>
        <mxCell id="vyAEzv-LTm84XFhcAqhD-7" value="" style="line;strokeWidth=1;fillColor=none;align=left;verticalAlign=middle;spacingTop=-1;spacingLeft=3;spacingRight=3;rotatable=0;labelPosition=right;points=[];portConstraint=eastwest;" parent="vyAEzv-LTm84XFhcAqhD-5" vertex="1">
          <mxGeometry y="170" width="300" height="8" as="geometry" />
        </mxCell>
        <mxCell id="vyAEzv-LTm84XFhcAqhD-8" value="+circlePaint()&#xa;+circleIncreasing()&#xa;+circleDecreasing()&#xa;+circleFade()&#xa;+getRadius()" style="text;strokeColor=none;fillColor=none;align=left;verticalAlign=top;spacingLeft=4;spacingRight=4;overflow=hidden;rotatable=0;points=[[0,0.5],[1,0.5]];portConstraint=eastwest;" parent="vyAEzv-LTm84XFhcAqhD-5" vertex="1">
          <mxGeometry y="178" width="300" height="122" as="geometry" />
        </mxCell>
        <mxCell id="hBS44LDTYtl2Zqlr24Ed-2" style="edgeStyle=orthogonalEdgeStyle;rounded=0;orthogonalLoop=1;jettySize=auto;html=1;endArrow=block;endFill=0;" edge="1" parent="1" source="vyAEzv-LTm84XFhcAqhD-9">
          <mxGeometry relative="1" as="geometry">
            <mxPoint x="705" y="808" as="targetPoint" />
            <Array as="points">
              <mxPoint x="390" y="705" />
              <mxPoint x="390" y="890" />
              <mxPoint x="705" y="890" />
            </Array>
          </mxGeometry>
        </mxCell>
        <mxCell id="hBS44LDTYtl2Zqlr24Ed-24" style="edgeStyle=orthogonalEdgeStyle;rounded=0;orthogonalLoop=1;jettySize=auto;html=1;entryX=0;entryY=0.5;entryDx=0;entryDy=0;endArrow=diamond;endFill=1;" edge="1" parent="1" source="vyAEzv-LTm84XFhcAqhD-9" target="hBS44LDTYtl2Zqlr24Ed-15">
          <mxGeometry relative="1" as="geometry" />
        </mxCell>
        <mxCell id="vyAEzv-LTm84XFhcAqhD-9" value="Cuadrado" style="swimlane;fontStyle=1;align=center;verticalAlign=top;childLayout=stackLayout;horizontal=1;startSize=26;horizontalStack=0;resizeParent=1;resizeParentMax=0;resizeLast=0;collapsible=1;marginBottom=0;" parent="1" vertex="1">
          <mxGeometry x="40" y="540" width="300" height="330" as="geometry">
            <mxRectangle x="229" y="490" width="90" height="26" as="alternateBounds" />
          </mxGeometry>
        </mxCell>
        <mxCell id="hBS44LDTYtl2Zqlr24Ed-8" value="&lt;span&gt;- x: int&lt;/span&gt;&lt;br style=&quot;padding: 0px ; margin: 0px&quot;&gt;&lt;span&gt;-y: int&lt;/span&gt;&lt;br style=&quot;padding: 0px ; margin: 0px&quot;&gt;&lt;span&gt;-side: int&lt;/span&gt;&lt;br style=&quot;padding: 0px ; margin: 0px&quot;&gt;&lt;span&gt;-squareBehavior: int&lt;/span&gt;" style="text;html=1;align=left;verticalAlign=middle;resizable=0;points=[];autosize=1;strokeColor=none;fillColor=none;" vertex="1" parent="vyAEzv-LTm84XFhcAqhD-9">
          <mxGeometry y="26" width="300" height="60" as="geometry" />
        </mxCell>
        <mxCell id="vyAEzv-LTm84XFhcAqhD-11" value="" style="line;strokeWidth=1;fillColor=none;align=left;verticalAlign=middle;spacingTop=-1;spacingLeft=3;spacingRight=3;rotatable=0;labelPosition=right;points=[];portConstraint=eastwest;" parent="vyAEzv-LTm84XFhcAqhD-9" vertex="1">
          <mxGeometry y="86" width="300" height="74" as="geometry" />
        </mxCell>
        <mxCell id="vyAEzv-LTm84XFhcAqhD-12" value="+ duracionTiempo(var): int&#xa;+squareDisplay()&#xa;+squareMovement()&#xa;+areaText()&#xa;+getX()&#xa;+getY()&#xa;+getReleasingType()&#xa;+setSquareBehaviour()" style="text;strokeColor=none;fillColor=none;align=left;verticalAlign=top;spacingLeft=4;spacingRight=4;overflow=hidden;rotatable=0;points=[[0,0.5],[1,0.5]];portConstraint=eastwest;" parent="vyAEzv-LTm84XFhcAqhD-9" vertex="1">
          <mxGeometry y="160" width="300" height="170" as="geometry" />
        </mxCell>
        <mxCell id="vyAEzv-LTm84XFhcAqhD-21" style="edgeStyle=orthogonalEdgeStyle;rounded=0;orthogonalLoop=1;jettySize=auto;html=1;endArrow=block;endFill=0;entryX=0;entryY=0.5;entryDx=0;entryDy=0;" parent="1" source="vyAEzv-LTm84XFhcAqhD-13" target="vyAEzv-LTm84XFhcAqhD-1" edge="1">
          <mxGeometry relative="1" as="geometry">
            <mxPoint x="250" y="174" as="targetPoint" />
          </mxGeometry>
        </mxCell>
        <mxCell id="hBS44LDTYtl2Zqlr24Ed-21" style="edgeStyle=orthogonalEdgeStyle;rounded=0;orthogonalLoop=1;jettySize=auto;html=1;entryX=0;entryY=1;entryDx=0;entryDy=0;endArrow=diamond;endFill=1;startArrow=none;" edge="1" parent="1" source="hBS44LDTYtl2Zqlr24Ed-26" target="hBS44LDTYtl2Zqlr24Ed-15">
          <mxGeometry relative="1" as="geometry" />
        </mxCell>
        <mxCell id="hBS44LDTYtl2Zqlr24Ed-32" style="edgeStyle=orthogonalEdgeStyle;rounded=0;orthogonalLoop=1;jettySize=auto;html=1;entryX=0.25;entryY=0;entryDx=0;entryDy=0;endArrow=block;endFill=0;" edge="1" parent="1" source="vyAEzv-LTm84XFhcAqhD-13" target="vyAEzv-LTm84XFhcAqhD-1">
          <mxGeometry relative="1" as="geometry">
            <Array as="points">
              <mxPoint x="470" y="195" />
              <mxPoint x="470" y="690" />
            </Array>
          </mxGeometry>
        </mxCell>
        <mxCell id="vyAEzv-LTm84XFhcAqhD-13" value="Triangulo" style="swimlane;fontStyle=1;align=center;verticalAlign=top;childLayout=stackLayout;horizontal=1;startSize=26;horizontalStack=0;resizeParent=1;resizeParentMax=0;resizeLast=0;collapsible=1;marginBottom=0;" parent="1" vertex="1">
          <mxGeometry x="30" y="20" width="300" height="350" as="geometry">
            <mxRectangle x="10" y="400" width="80" height="26" as="alternateBounds" />
          </mxGeometry>
        </mxCell>
        <mxCell id="vyAEzv-LTm84XFhcAqhD-14" value="- x1: int&#xa;-x2:int&#xa;-x3:int&#xa;-y1:int&#xa;-y2:int&#xa;-y3:int&#xa;-angle:int&#xa;-originX:int&#xa;-originY:int&#xa;-triangleState:boolean&#xa;&#xa;" style="text;strokeColor=none;fillColor=none;align=left;verticalAlign=top;spacingLeft=4;spacingRight=4;overflow=hidden;rotatable=0;points=[[0,0.5],[1,0.5]];portConstraint=eastwest;" parent="vyAEzv-LTm84XFhcAqhD-13" vertex="1">
          <mxGeometry y="26" width="300" height="154" as="geometry" />
        </mxCell>
        <mxCell id="vyAEzv-LTm84XFhcAqhD-15" value="" style="line;strokeWidth=1;fillColor=none;align=left;verticalAlign=middle;spacingTop=-1;spacingLeft=3;spacingRight=3;rotatable=0;labelPosition=right;points=[];portConstraint=eastwest;" parent="vyAEzv-LTm84XFhcAqhD-13" vertex="1">
          <mxGeometry y="180" width="300" height="50" as="geometry" />
        </mxCell>
        <mxCell id="vyAEzv-LTm84XFhcAqhD-16" value="+ getTriangleSideMode(): int&#xa;+ setTriangleSideMode(): int&#xa;+ triangleChangeSide()&#xa;+triangleDisplay()&#xa;+triangleRandomDisplay()&#xa;+triangleRotation()&#xa;+getTriangleStartingMode()&#xa;+getTriangleRandomposition()&#xa;" style="text;strokeColor=none;fillColor=none;align=left;verticalAlign=top;spacingLeft=4;spacingRight=4;overflow=hidden;rotatable=0;points=[[0,0.5],[1,0.5]];portConstraint=eastwest;" parent="vyAEzv-LTm84XFhcAqhD-13" vertex="1">
          <mxGeometry y="230" width="300" height="120" as="geometry" />
        </mxCell>
        <mxCell id="hBS44LDTYtl2Zqlr24Ed-22" style="edgeStyle=orthogonalEdgeStyle;rounded=0;orthogonalLoop=1;jettySize=auto;html=1;entryX=1;entryY=0.5;entryDx=0;entryDy=0;endArrow=diamond;endFill=1;" edge="1" parent="1" source="vyAEzv-LTm84XFhcAqhD-17" target="hBS44LDTYtl2Zqlr24Ed-15">
          <mxGeometry relative="1" as="geometry" />
        </mxCell>
        <mxCell id="vyAEzv-LTm84XFhcAqhD-17" value="Rectangulo" style="swimlane;fontStyle=1;align=center;verticalAlign=top;childLayout=stackLayout;horizontal=1;startSize=26;horizontalStack=0;resizeParent=1;resizeParentMax=0;resizeLast=0;collapsible=1;marginBottom=0;" parent="1" vertex="1">
          <mxGeometry x="830" y="56" width="300" height="280" as="geometry">
            <mxRectangle x="560" y="316" width="95" height="26" as="alternateBounds" />
          </mxGeometry>
        </mxCell>
        <mxCell id="vyAEzv-LTm84XFhcAqhD-18" value="- x: int&#xa;-y: int&#xa;-sideWidth: int&#xa;-sideHeight: int&#xa;-rectBehavior:int&#xa;-areaCalculator:int&#xa;-dir:int&#xa;-counter:int" style="text;strokeColor=none;fillColor=none;align=left;verticalAlign=top;spacingLeft=4;spacingRight=4;overflow=hidden;rotatable=0;points=[[0,0.5],[1,0.5]];portConstraint=eastwest;" parent="vyAEzv-LTm84XFhcAqhD-17" vertex="1">
          <mxGeometry y="26" width="300" height="134" as="geometry" />
        </mxCell>
        <mxCell id="vyAEzv-LTm84XFhcAqhD-19" value="" style="line;strokeWidth=1;fillColor=none;align=left;verticalAlign=middle;spacingTop=-1;spacingLeft=3;spacingRight=3;rotatable=0;labelPosition=right;points=[];portConstraint=eastwest;" parent="vyAEzv-LTm84XFhcAqhD-17" vertex="1">
          <mxGeometry y="160" width="300" height="8" as="geometry" />
        </mxCell>
        <mxCell id="vyAEzv-LTm84XFhcAqhD-20" value="+rectDisplay()&#xa;+rectFallingDown&#xa;+rectChangeDir()&#xa;+rectRandomAction()&#xa;" style="text;strokeColor=none;fillColor=none;align=left;verticalAlign=top;spacingLeft=4;spacingRight=4;overflow=hidden;rotatable=0;points=[[0,0.5],[1,0.5]];portConstraint=eastwest;" parent="vyAEzv-LTm84XFhcAqhD-17" vertex="1">
          <mxGeometry y="168" width="300" height="112" as="geometry" />
        </mxCell>
        <mxCell id="hBS44LDTYtl2Zqlr24Ed-15" value="Sketch" style="swimlane;fontStyle=1;align=center;verticalAlign=top;childLayout=stackLayout;horizontal=1;startSize=26;horizontalStack=0;resizeParent=1;resizeParentMax=0;resizeLast=0;collapsible=1;marginBottom=0;" vertex="1" parent="1">
          <mxGeometry x="530" y="36" width="160" height="350" as="geometry">
            <mxRectangle x="275" y="170" width="70" height="26" as="alternateBounds" />
          </mxGeometry>
        </mxCell>
        <mxCell id="hBS44LDTYtl2Zqlr24Ed-16" value="#timing:int&#xa;#circles:arraylist&#xa;#screenMode:int&#xa;#squares:arraylist&#xa;#rectTiming: int&#xa;#rectangles:arraylist&#xa;" style="text;strokeColor=none;fillColor=none;align=left;verticalAlign=top;spacingLeft=4;spacingRight=4;overflow=hidden;rotatable=0;points=[[0,0.5],[1,0.5]];portConstraint=eastwest;" vertex="1" parent="hBS44LDTYtl2Zqlr24Ed-15">
          <mxGeometry y="26" width="160" height="114" as="geometry" />
        </mxCell>
        <mxCell id="hBS44LDTYtl2Zqlr24Ed-17" value="" style="line;strokeWidth=1;fillColor=none;align=left;verticalAlign=middle;spacingTop=-1;spacingLeft=3;spacingRight=3;rotatable=0;labelPosition=right;points=[];portConstraint=eastwest;" vertex="1" parent="hBS44LDTYtl2Zqlr24Ed-15">
          <mxGeometry y="140" width="160" height="8" as="geometry" />
        </mxCell>
        <mxCell id="hBS44LDTYtl2Zqlr24Ed-18" value="+setup()&#xa;+draw()&#xa;+mousepressed()&#xa;+circleControl()&#xa;+circleCreator()&#xa;+squareCreator()&#xa;+rectCreator()&#xa;+getTriangleState()&#xa;+triangleRotation()" style="text;strokeColor=none;fillColor=none;align=left;verticalAlign=top;spacingLeft=4;spacingRight=4;overflow=hidden;rotatable=0;points=[[0,0.5],[1,0.5]];portConstraint=eastwest;" vertex="1" parent="hBS44LDTYtl2Zqlr24Ed-15">
          <mxGeometry y="148" width="160" height="202" as="geometry" />
        </mxCell>
        <mxCell id="hBS44LDTYtl2Zqlr24Ed-26" value="&lt;b&gt;1&lt;/b&gt;" style="text;html=1;strokeColor=none;fillColor=none;align=center;verticalAlign=middle;whiteSpace=wrap;rounded=0;" vertex="1" parent="1">
          <mxGeometry x="190" y="386" width="40" height="24" as="geometry" />
        </mxCell>
        <mxCell id="hBS44LDTYtl2Zqlr24Ed-27" value="" style="edgeStyle=orthogonalEdgeStyle;rounded=0;orthogonalLoop=1;jettySize=auto;html=1;entryX=0;entryY=1;entryDx=0;entryDy=0;endArrow=none;endFill=1;" edge="1" parent="1" source="vyAEzv-LTm84XFhcAqhD-13" target="hBS44LDTYtl2Zqlr24Ed-26">
          <mxGeometry relative="1" as="geometry">
            <mxPoint x="90" y="412.96551724137953" as="sourcePoint" />
            <mxPoint x="275" y="195.99999999999977" as="targetPoint" />
          </mxGeometry>
        </mxCell>
        <mxCell id="hBS44LDTYtl2Zqlr24Ed-28" value="&lt;b&gt;1..*&lt;/b&gt;" style="text;html=1;strokeColor=none;fillColor=none;align=center;verticalAlign=middle;whiteSpace=wrap;rounded=0;" vertex="1" parent="1">
          <mxGeometry x="340" y="686" width="40" height="20" as="geometry" />
        </mxCell>
        <mxCell id="hBS44LDTYtl2Zqlr24Ed-29" value="&lt;b&gt;1..*&lt;/b&gt;" style="text;html=1;strokeColor=none;fillColor=none;align=center;verticalAlign=middle;whiteSpace=wrap;rounded=0;" vertex="1" parent="1">
          <mxGeometry x="520" y="316" width="40" height="20" as="geometry" />
        </mxCell>
        <mxCell id="hBS44LDTYtl2Zqlr24Ed-30" value="&lt;b&gt;1..*&lt;/b&gt;" style="text;html=1;strokeColor=none;fillColor=none;align=center;verticalAlign=middle;whiteSpace=wrap;rounded=0;" vertex="1" parent="1">
          <mxGeometry x="790" y="510" width="40" height="20" as="geometry" />
        </mxCell>
        <mxCell id="hBS44LDTYtl2Zqlr24Ed-34" value="&lt;b&gt;1..*&lt;/b&gt;" style="text;html=1;strokeColor=none;fillColor=none;align=center;verticalAlign=middle;whiteSpace=wrap;rounded=0;" vertex="1" parent="1">
          <mxGeometry x="790" y="180" width="40" height="20" as="geometry" />
        </mxCell>
      </root>
    </mxGraphModel>
  </diagram>
</mxfile>
